{"title":"Bigger Than the Sky (2005) DVrip-XviV","uid":8742034,"size":733169664,"categoryP":"video","categoryS":"movies","magnet":"?xt=urn:btih:fec5b5e703bd6378f688be20f7faba459dc18308&amp;dn=Bigger+Than+the+Sky+%282005%29+DVrip-XviV&amp;tr=udp%3A%2F%2Ftracker.openbittorrent.com%3A80&amp;tr=udp%3A%2F%2Fopen.demonii.com%3A1337&amp;tr=udp%3A%2F%2Ftracker.coppersurfer.tk%3A6969&amp;tr=udp%3A%2F%2Fexodus.desync.com%3A6969","seeders":1,"leechers":0,"uploader":null,"files":1,"time":1374814201,"description":"Bigger Than the Sky (2005) DVrip-XviV\n\nFormat  : AVI\nFormat/Info  : Audio Video Interleave\nFile size  : 699 MiB\nDuration   : 1h 46mn\nOverall bit rate mode  : Variable\nOverall bit rate   : 922 Kbps\nWriting application  : Nandub v1.0rc2\nWriting library: Nandub build 1852/release\n\nVideo\nID  : 0\nFormat  : MPEG-4 Visual\nFormat profile  : Advanced Simple@L5\nFormat settings, BVOP   : 2\nFormat settings, QPel   : No\nFormat settings, GMC   : No warppoints\nFormat settings, Matrix   : Default (H.263)\nMuxing mode  : Packed bitstream\nCodec ID   : XVID\nCodec ID/Hint  : XviD\nDuration  : 1h 46mn\nBit rate  : 779 Kbps\nWidth  : 592 pixels\nHeight  : 320 pixels\nDisplay aspect ratio : 1.85:1\nFrame rate  : 23.976 fps\nColor space  : YUV\nChroma subsampling   : 4:2:0\nBit depth   : 8 bits\nScan type  : Progressive\nCompression mode  : Lossy\nBits/(Pixel*Frame)   : 0.171\nStream size  : 591 MiB (84%)\nWriting library  : XviD 1.0.3 (UTC 2004-12-20)\n\nAudio\nID : 1\nFormat   : MPEG Audio\nFormat version : Version 1\nFormat profile  : Layer 3\nMode  : Joint stereo\nMode extension   : MS Stereo\nCodec ID   : 55\nCodec ID/Hint    : MP3\nDuration  : 1h 46mn\nBit rate mode  : Variable\nBit rate  : 128 Kbps\nChannel(s)  : 2 channels\nSampling rate  : 48.0 KHz\nCompression mode  : Lossy\nStream size : 98.8 MiB (14%)\nAlignment  : Aligned on interleaves\nInterleave, duration  : 24 ms (0.58 video frame)\nInterleave, preload duration : 135 ms\nWriting library : LAME3.92 \nEncoding settings  : -m j -V 4 -q 2 -lowpass 17.5 --abr 128\n","torrent":{"xt":"urn:btih:fec5b5e703bd6378f688be20f7faba459dc18308","amp;dn":"Bigger+Than+the+Sky+%282005%29+DVrip-XviV","amp;tr":["udp%3A%2F%2Ftracker.openbittorrent.com%3A80","udp%3A%2F%2Fopen.demonii.com%3A1337","udp%3A%2F%2Ftracker.coppersurfer.tk%3A6969","udp%3A%2F%2Fexodus.desync.com%3A6969"],"infoHash":"fec5b5e703bd6378f688be20f7faba459dc18308","infoHashBuffer":{"type":"Buffer","data":[254,197,181,231,3,189,99,120,246,136,190,32,247,250,186,69,157,193,131,8]},"announce":[],"urlList":[]}}